<?xml version="1.0" standalone="no"?>
<!DOCTYPE svg PUBLIC "-//W3C//DTD SVG 20010904//EN"
 "http://www.w3.org/TR/2001/REC-SVG-20010904/DTD/svg10.dtd">
<svg version="1.0" xmlns="http://www.w3.org/2000/svg"
 width="70px" height="auto" viewBox="0 0 512.000000 512.000000"
 preserveAspectRatio="xMidYMid meet">

<g transform="translate(0.000000,512.000000) scale(0.100000,-0.100000)"
fill="#e7e6eb" stroke="none">
<path d="M655 4998 c-21 -19 -32 -48 -60 -168 -98 -423 -104 -806 -19 -1195
28 -127 86 -319 116 -387 l30 -67 -30 -79 c-79 -208 -122 -423 -129 -658 -7
-220 6 -360 52 -539 44 -171 75 -254 150 -405 259 -517 708 -882 1269 -1030
323 -85 686 -84 1006 4 161 44 228 70 375 144 514 257 877 707 1025 1267 71
271 83 562 35 841 -20 111 -79 312 -120 409 l-35 80 24 60 c38 93 102 340 125
477 44 258 46 546 6 818 -22 152 -80 388 -100 410 -50 55 -90 30 -150 -93 -53
-108 -173 -274 -281 -387 -132 -137 -403 -349 -469 -366 -15 -4 -49 6 -100 31
-529 251 -1189 250 -1692 -4 -46 -22 -87 -41 -93 -41 -27 0 -176 96 -289 186
-222 178 -414 402 -506 591 -42 86 -73 123 -102 123 -6 0 -24 -10 -38 -22z
m122 -326 c123 -183 385 -464 546 -585 48 -36 89 -68 90 -70 1 -3 -41 -38 -93
-78 -109 -84 -238 -210 -326 -319 -57 -70 -157 -215 -167 -243 -6 -16 -29 13
-57 71 -22 47 -72 256 -97 414 -20 125 -23 490 -4 618 20 143 44 270 50 270 3
-1 29 -35 58 -78z m3547 -19 c46 -255 55 -592 23 -803 -33 -210 -89 -428 -115
-444 -5 -3 -34 32 -65 77 -125 185 -289 355 -469 490 -38 27 -68 51 -68 52 0
1 37 31 83 66 158 121 451 440 552 601 17 27 33 48 36 48 4 0 14 -39 23 -87z
m-1602 -438 c175 -20 256 -38 410 -91 368 -125 676 -358 912 -688 248 -346
372 -825 322 -1243 -21 -181 -39 -260 -92 -415 -125 -368 -358 -676 -688 -912
-346 -248 -825 -372 -1243 -322 -181 21 -260 39 -415 92 -424 145 -788 448
-1009 842 -73 130 -134 281 -173 432 -50 191 -59 280 -54 514 6 229 28 356 99
571 134 405 448 778 837 996 330 185 728 267 1094 224z"/>
<path d="M2345 3524 c-260 -46 -476 -162 -663 -357 -198 -208 -303 -457 -318
-757 -18 -344 111 -661 369 -908 313 -298 765 -399 1179 -261 171 56 306 138
442 269 90 86 126 139 126 184 0 25 -32 56 -57 56 -7 0 -54 -43 -105 -95 -116
-121 -198 -182 -329 -245 -140 -66 -241 -91 -409 -97 -158 -6 -259 9 -405 61
-182 65 -364 203 -485 366 -66 90 -144 254 -172 365 -20 77 -23 115 -22 255 0
177 14 255 71 400 63 161 203 339 353 450 88 66 254 144 360 171 131 32 335
37 466 10 198 -41 372 -131 512 -265 108 -103 171 -190 232 -317 67 -142 91
-241 97 -414 6 -166 -14 -286 -72 -430 -33 -82 -35 -89 -20 -111 16 -25 55
-40 80 -30 24 9 51 61 84 161 186 560 -67 1167 -599 1435 -204 103 -487 144
-715 104z"/>
<path d="M2034 3164 c-120 -81 -221 -186 -295 -309 -53 -87 -60 -124 -29 -155
42 -42 74 -23 135 82 54 93 140 188 231 255 71 52 90 83 73 116 -24 45 -59 49
-115 11z"/>
</g>
</svg>
