<svg  enable-background="new 0 0 512.132 512.132" viewBox="0 0 512.132 512.132" xmlns="http://www.w3.org/2000/svg">
<symbol id="bandage" viewBox="0 0 512.132 512.132">
<path d="m479.007 193.321c44.166-44.167 44.166-116.03 0-160.195-44.167-44.167-116.03-44.167-160.195-.001l-41.533 41.533 160.196 160.196z"/><path d="m33.125 318.812c-44.166 44.166-44.166 116.029 0 160.195 22.083 22.083 51.091 33.124 80.098 33.124 29.008 0 58.015-11.041 80.098-33.124l41.533-41.533-160.196-160.195z"/><path d="m74.145 234.341 160.196-160.196-41.02-41.02c-44.167-44.167-116.031-44.165-160.196 0-44.166 44.167-44.166 116.03 0 160.195z"/><path d="m255.554 95.358-160.196 160.195 161.221 161.221 160.196-160.196zm-52.698 150.278c-5.858 5.858-15.355 5.858-21.213 0s-5.858-15.355 0-21.213 15.355-5.858 21.213 0 5.858 15.355 0 21.213zm42.426 42.427c-5.858 5.858-15.355 5.858-21.213 0s-5.858-15.355 0-21.213 15.355-5.858 21.213 0c5.858 5.857 5.858 15.355 0 21.213zm.354-85.207c-5.858 5.858-15.355 5.858-21.213 0s-5.858-15.355 0-21.213 15.355-5.858 21.213 0 5.858 15.355 0 21.213zm42.073 127.633c-5.858 5.858-15.355 5.858-21.213 0s-5.858-15.355 0-21.213 15.355-5.858 21.213 0 5.858 15.355 0 21.213zm.354-85.206c-5.858 5.858-15.355 5.858-21.213 0s-5.858-15.355 0-21.213 15.355-5.858 21.213 0c5.857 5.857 5.857 15.355 0 21.213zm21.213 42.426c-5.858-5.858-5.858-15.355 0-21.213s15.355-5.858 21.213 0 5.858 15.355 0 21.213-15.355 5.858-21.213 0z"/><path d="m437.987 277.791-160.195 160.196 41.021 41.021c22.083 22.083 51.09 33.124 80.097 33.124 29.008 0 58.016-11.042 80.099-33.125 44.166-44.166 44.166-116.029 0-160.195z"/>
</symbol>
</svg>